<svg width="24" height="24" viewBox="0 0 24 24" fill="none" xmlns="http://www.w3.org/2000/svg">
<path d="M2.18919 1C1.8738 1 1.57132 1.12529 1.34831 1.34831C1.12529 1.57132 1 1.8738 1 2.18919V21.8108C1 22.1262 1.12529 22.4287 1.34831 22.6517C1.57132 22.8747 1.8738 23 2.18919 23H21.8108C22.1262 23 22.4287 22.8747 22.6517 22.6517C22.8747 22.4287 23 22.1262 23 21.8108V2.18919C23 1.8738 22.8747 1.57132 22.6517 1.34831C22.4287 1.12529 22.1262 1 21.8108 1H2.18919Z" stroke="#B29079" stroke-linecap="round" stroke-linejoin="round"/>
<path d="M17.9489 15.36C17.7525 15.7046 17.4683 15.991 17.1254 16.1902C16.7824 16.3893 16.3928 16.4941 15.9962 16.4939C15.4002 16.4939 14.8286 16.2572 14.4072 15.8358C13.9857 15.4145 13.7488 14.8429 13.7487 14.247V12.7866C13.7487 12.1905 13.9855 11.6189 14.407 11.1974C14.8285 10.7759 15.4001 10.5391 15.9962 10.5391C16.5922 10.5392 17.1637 10.7761 17.5851 11.1976C18.0065 11.6191 18.2432 12.1906 18.2432 12.7866V13.5168H13.7493" stroke="#B29079" stroke-linecap="round" stroke-linejoin="round"/>
<path d="M9.46461 12.0008C10.0543 12.0104 10.6166 12.2514 11.0302 12.6718C11.4438 13.0922 11.6756 13.6583 11.6756 14.2481C11.6756 14.8378 11.4438 15.4039 11.0302 15.8243C10.6166 16.2447 10.0543 16.4857 9.46461 16.4953H5.75671V7.50684H9.46461C10.0516 7.52034 10.61 7.763 11.0204 8.18292C11.4307 8.60284 11.6605 9.16667 11.6605 9.75381C11.6605 10.3409 11.4307 10.9048 11.0204 11.3247C10.61 11.7446 10.0516 11.9873 9.46461 12.0008ZM9.46461 12.0008H5.75671" stroke="#B29079" stroke-width="0.866" stroke-linecap="round" stroke-linejoin="round"/>
<path d="M13.7493 7.50684H18.2432" stroke="#B29079" stroke-linecap="round" stroke-linejoin="round"/>
</svg>
